PathFileType	3	(X/Y/Z)	D:\Jess\Healthy\Labelled\HA13\20250417\SRRun01.trc
DataRate	CameraRate	NumFrames	NumMarkers	Units	OrigDataRate	OrigDataStartFrame	OrigNumFrames
250.0	250.0	5	37	mm	250.0	35312	2501
Frame#	Time	C7			T10			CLAV			LSHO			RSHO			LASIS			RASIS			LPSIS			RPSIS			LILCR			RILCR			LGTR			LTHI			LLTHI			LLEP			LMEP			LPSH			LLSH			LDSH			LLMAL			LMMAL			LTOE			L5TH			LHEE			RGTR			RTHI			RLTHI			RLEP			RMEP			RPSH			RLSH			RDSH			RLMAL			RMMAL			RTOE			R5TH			RHEE			
		X1	Y1	Z1	X2	Y2	Z2	X3	Y3	Z3	X4	Y4	Z4	X5	Y5	Z5	X6	Y6	Z6	X7	Y7	Z7	X8	Y8	Z8	X9	Y9	Z9	X10	Y10	Z10	X11	Y11	Z11	X12	Y12	Z12	X13	Y13	Z13	X14	Y14	Z14	X15	Y15	Z15	X16	Y16	Z16	X17	Y17	Z17	X18	Y18	Z18	X19	Y19	Z19	X20	Y20	Z20	X21	Y21	Z21	X22	Y22	Z22	X23	Y23	Z23	X24	Y24	Z24	X25	Y25	Z25	X26	Y26	Z26	X27	Y27	Z27	X28	Y28	Z28	X29	Y29	Z29	X30	Y30	Z30	X31	Y31	Z31	X32	Y32	Z32	X33	Y33	Z33	X34	Y34	Z34	X35	Y35	Z35	X36	Y36	Z36	X37	Y37	Z37	

313	141.244	901.8459114857167	1565.545382056367	-292.3696916559525	811.6108121536816	1315.078567693227	-307.4820641241053	1052.98157383314	1438.228515377042	-299.0270625230526	958.1037527856649	1540.116206989991	-453.7841837212806	966.4376482207142	1536.638538823216	-147.6435772052297	985.8671424035167	1022.923611534738	-406.3965261941561	966.0829730977921	1029.175859263994	-192.0052603132536	795.5429276903328	1065.247216719662	-336.9937266088207	792.6755699136551	1061.178069751505	-293.7988705479585	926.1440511084759	1089.068727369806	-471.2837570095643	900.2456540618347	1086.203114741612	-142.6395374578973	979.2063302929885	869.8270961061562	-480.2368351782192	1095.767244221122	813.4037889926947	-416.4027754272451	1056.647495047775	694.3669324313246	-463.0887179506441	1112.713211274415	588.6322479231768	-442.7811266634418	nan	nan	nan	1098.021593247611	471.2260312746299	-404.1863535319479	942.5924063478942	465.5912858486769	-450.0015893124905	899.9449750253568	348.352415907059	-407.0627513740762	792.3521662151747	331.1971583527894	-429.4439701144182	nan	nan	nan	835.6456990022922	176.9522109605479	-443.6132401645062	785.1330992154717	191.7981552204357	-474.9455694767573	715.7496778967513	344.9455215894172	-363.2663468776185	906.4688953237355	860.0594147318841	-131.3301140540214	980.5663246463171	741.7477295621721	-219.3308461942456	855.4353101625294	652.5386282342408	-166.7886566229125	841.8700228741558	495.4638071466744	-192.5071060914254	nan	nan	nan	861.794097677281	398.920976752502	-252.5826028366312	747.0024889479615	324.2687880139339	-202.2916877978316	724.267838818821	185.7116101221882	-284.2715021761459	647.9516129965149	134.3690850309303	-256.5488035672147	nan	nan	nan	780.5407706127778	57.44277535315101	-269.7377907640225	723.8049331201114	44.17368689726039	-232.7404883397654	564.6561657464309	112.4557776993018	-307.9844491337748	
314	141.248	902.0352391751974	1568.006792748652	-292.3893907778383	812.140326428493	1317.165767478797	-306.6100545815331	1053.175444009409	1440.913905500295	-300.1837101394974	957.1783855061356	1542.592059020219	-454.0180465224072	967.2629224190957	1539.795543091056	-148.2717855847262	986.383912205449	1026.164408457822	-406.4512039655548	966.8403303636811	1030.525458229074	-192.0136081137975	796.0970310849864	1067.703288684426	-336.3373830856196	793.3601921261769	1063.443124903821	-293.2245648954093	926.1676715540442	1092.064207846667	-471.2366832665218	902.084662561792	1088.176626571359	-142.6556938554329	980.3922095918599	874.0938256075327	-480.6280873077974	1097.058883960933	818.4645422379917	-416.5090375658816	1059.368042266855	699.0456977798448	-463.1540972005995	1115.712292874562	593.1884608541072	-442.7571590603475	nan	nan	nan	1103.950700372598	474.705088410772	-403.9579732837166	948.541579476917	463.9100818185102	-449.4981611864963	909.7934805698468	345.4010541031892	-406.4371571777244	802.7091692552744	324.7125130403488	-428.6042508265047	nan	nan	nan	851.3473330202078	172.2127606637471	-443.043776086105	800.2928468928909	185.2964526219612	-474.2781761391153	725.7583439594989	335.727958397025	-362.2466886628279	905.1205468894265	860.9430309416589	-132.1624479033625	976.8553955019996	741.446108370813	-220.5371975198334	849.7062270912578	654.7190887684834	-167.6600536093456	833.3371757124117	497.9532450826911	-193.0680787552023	nan	nan	nan	852.5083201478142	401.1098014346825	-253.086865232738	737.2407328576006	327.3974644000318	-202.6804691790733	714.2226385011395	188.4344680828906	-284.2438713211307	637.4270425455279	137.5161863525654	-256.4853981255293	nan	nan	nan	768.7276278233595	57.11477511514396	-269.8370671180441	711.7011229805659	44.87377478924372	-232.9421767234757	554.1540716142259	116.76327941317	-307.8467331213386	
315	141.252	902.2317356704585	1570.547957953716	-292.4181310419845	812.7184867980213	1319.317527249675	-305.715223989289	1053.37694056218	1443.702163129904	-301.3607511805955	956.2584658265976	1545.142706699772	-454.2460311691812	968.0326656958082	1543.008130875307	-148.8933680673456	986.9502088539007	1029.407873471604	-406.4912719799451	967.675520658796	1031.926934436042	-192.0763923443679	796.7339305990415	1070.275028132643	-335.6921494296154	794.1303862802728	1065.839647970976	-292.664900259773	926.2294978584299	1095.039780688754	-471.2111865905959	904.1452183188637	1090.171831634043	-142.7041711638286	981.6416747258139	878.4513017995138	-480.9848966198288	1098.316811914721	823.4581691983847	-416.5929948873139	1061.91202342836	703.6572350408495	-463.2196106986277	1118.361470643678	597.5831182510261	-442.7422665121305	nan	nan	nan	1109.593260003589	478.0873949470095	-403.7376023640772	954.3750510115998	462.0264532956502	-448.9762099322579	919.6614409381051	342.369332144167	-405.7440338836266	813.2189811520159	318.0941805629482	-427.6798225007776	nan	nan	nan	867.2308035166614	167.55817736786	-442.360445693191	815.6916247895181	178.819175935108	-473.5041437819112	736.0215753307133	326.3417644345641	-361.1315466126754	903.829964154526	861.9838166818446	-132.9809864832815	973.259738311405	741.5114571965569	-221.8688648017556	844.2069743346275	657.1090982458867	-168.4305499530575	825.0177476720211	500.7565072331968	-193.5476990788299	nan	nan	nan	843.4274061967111	403.6108461597104	-253.4871167282533	727.6887296070028	330.8360720926276	-202.9958915501861	704.4775600948218	191.4100491583408	-284.1151727971053	627.1997412085651	140.8902107380941	-256.3581597886184	nan	nan	nan	757.0231740614712	56.77218770225507	-269.9079337990254	699.7030017189586	45.6547971470475	-233.1273456418693	543.9860110058149	121.4330666769264	-307.6710255419403	
316	141.256	902.4311491108813	1573.153786780505	-292.4560954919208	813.339706275185	1321.52415756977	-304.8018998699689	1053.580771553972	1446.586605203095	-302.5457211384482	955.350586543631	1547.757189787323	-454.4653484249686	968.7484167619726	1546.26070535219	-149.5066535015817	987.5634833327601	1032.644129587642	-406.5181396871328	968.5810924696642	1033.383879142898	-192.1940578069023	797.4509196674119	1072.958928870696	-335.0759112102082	794.9845306958971	1068.364298776268	-292.136514287765	926.338543686757	1098.009485755787	-471.203336358378	906.4090128486148	1092.188554681129	-142.7929500941255	982.9425443571168	882.8809525500429	-481.3080495438764	1099.54544685177	828.3844407807369	-416.6475249842149	1064.278103977942	708.1805724367014	-463.2832224773526	1120.665436011479	601.7922680207083	-442.7354401311989	nan	nan	nan	1114.948139414383	481.3562287124288	-403.5316784055826	960.1090284863225	459.9371503556225	-448.4429885873295	929.5534978372865	339.2632796360551	-404.9908154580764	823.892875788999	311.3557998412901	-426.6790005021974	nan	nan	nan	883.2902834305995	163.0024761168061	-441.5600579216622	831.328731785154	172.3813369799944	-472.6202982560046	746.5546949349634	316.8118813816335	-359.9291074907227	902.6053380291017	863.1893872048483	-133.7751639583927	969.7932739965767	741.9486830416689	-223.3178466027304	838.958084317944	659.696549127489	-169.0814168724068	816.9279335327324	503.8550486197929	-193.9305867500427	nan	nan	nan	834.5800331460374	406.4012632462585	-253.7561716557178	718.3633624852629	334.5666994202713	-203.2258089378141	695.0527563395792	194.618886401711	-283.8691007063353	617.2884237402477	144.4743351990731	-256.1568050202591	nan	nan	nan	745.4325590302901	56.4201949929373	-269.9430119236174	687.8202978602491	46.51984748156818	-233.2895965586347	534.1812576976062	126.4526163501333	-307.4515025240352	
317	141.26	902.6300420354592	1575.808724926555	-292.5031209496836	813.9984039913327	1323.775463542476	-303.8744472270716	1053.782284737756	1449.55962568512	-303.7262609052634	954.4611284571293	1550.424391849014	-454.6732604083033	969.41211623985	1549.538239206912	-150.110578288864	988.2216088246344	1035.864701379599	-406.5337477285632	969.5497121540585	1034.899857923016	-192.3655219442153	798.2447397973192	1075.749562518182	-334.5052122542635	795.9204290101072	1071.011519707862	-291.6545985310054	926.506185828424	1100.988781938889	-471.2078035429332	908.8551556295467	1094.227922197179	-142.9289506332397	984.2812227766485	887.3616180153156	-481.598854943257	1100.748972582814	833.2427501756827	-416.6672279197285	1066.464351439977	712.5962367358246	-463.3417608935075	1122.629465357035	605.7944632802694	-442.7358408909799	nan	nan	nan	1120.014579793712	484.4961990787156	-403.3464889662559	965.7599223503396	457.6395950866619	-447.9069087723717	939.4735927778627	336.0897708990319	-404.1855788971857	834.7412049026801	304.5121913490152	-425.611089869082	nan	nan	nan	899.5183583120792	158.5589237483467	-440.6394889582272	847.2018242285915	165.9979643579055	-471.6231100459556	757.3710575832019	307.1649840398195	-358.6487001405467	901.4547127223595	864.5633968131289	-134.5345380993016	966.4696423723651	742.7479166761705	-224.8643030779045	833.9727256997423	662.4667207420081	-169.5986080922708	809.0798845293986	507.2261104153915	-194.2049933590765	nan	nan	nan	825.9924444641607	409.4539958199941	-253.8710470539341	709.2794020012161	338.5669784026819	-203.3612087045543	685.9651466165208	198.0371127114018	-283.4926291426983	607.7089344849404	148.2486899331863	-255.8730216372144	nan	nan	nan	733.959606272888	56.06645586271738	-269.9361338454026	676.0617334664463	47.47322167069671	-233.4239023807593	524.766676623782	131.8049259083477	-307.1831055351064	
